<?xml version="1.0" encoding="UTF-8" standalone="no"?>
<!-- Generator: Adobe Illustrator 19.0.0, SVG Export Plug-In . SVG Version: 6.00 Build 0)  -->

<svg
   xmlns:dc="http://purl.org/dc/elements/1.1/"
   xmlns:cc="http://creativecommons.org/ns#"
   xmlns:rdf="http://www.w3.org/1999/02/22-rdf-syntax-ns#"
   xmlns:svg="http://www.w3.org/2000/svg"
   xmlns="http://www.w3.org/2000/svg"
   xmlns:sodipodi="http://sodipodi.sourceforge.net/DTD/sodipodi-0.dtd"
   xmlns:inkscape="http://www.inkscape.org/namespaces/inkscape"
   version="1.1"
   id="Capa_1"
   x="0px"
   y="0px"
   viewBox="0 0 1472.9683 670.30203"
   xml:space="preserve"
   sodipodi:docname="options.svg"
   width="1472.9683"
   height="670.302"
   inkscape:version="0.92.1 r15371"
   inkscape:export-filename="C:\Users\thiery.RGZM\Desktop\options.svg.png"
   inkscape:export-xdpi="260.70001"
   inkscape:export-ydpi="260.70001"><metadata
     id="metadata61"><rdf:RDF><cc:Work
         rdf:about=""><dc:format>image/svg+xml</dc:format><dc:type
           rdf:resource="http://purl.org/dc/dcmitype/StillImage" /><dc:title></dc:title></cc:Work></rdf:RDF></metadata><defs
     id="defs59" /><sodipodi:namedview
     pagecolor="#ffffff"
     bordercolor="#666666"
     borderopacity="1"
     objecttolerance="10"
     gridtolerance="10"
     guidetolerance="10"
     inkscape:pageopacity="0"
     inkscape:pageshadow="2"
     inkscape:window-width="1920"
     inkscape:window-height="1028"
     id="namedview57"
     showgrid="false"
     fit-margin-top="0"
     fit-margin-left="0"
     fit-margin-right="0"
     fit-margin-bottom="0"
     inkscape:zoom="0.46093662"
     inkscape:cx="626.62119"
     inkscape:cy="370.83695"
     inkscape:window-x="-8"
     inkscape:window-y="-8"
     inkscape:window-maximized="1"
     inkscape:current-layer="Capa_1" /><g
     id="g6"
     transform="translate(480.48367,-1.6056264e-4)"><g
       id="g4"><path
         d="m 312.346,364.027 c -0.432,-7.155 -3.569,-13.995 -8.833,-19.258 l -37.983,-37.99 c 6.136,-1.942 11.673,-5.283 16.183,-9.792 l 0.966,-0.967 c 16.739,-16.739 15.396,-45.316 -2.993,-63.706 -8.75,-8.749 -20.068,-13.959 -31.87,-14.672 -12.264,-0.741 -23.564,3.408 -31.835,11.68 l -0.966,0.966 c -4.512,4.511 -7.854,10.05 -9.795,16.188 L 167.232,208.487 C 156.038,197.293 138.5,196.617 128.134,206.98 l -34.429,34.43 c -4.213,4.213 -5.965,10.337 -4.687,16.38 1.39,6.571 5.973,11.944 12.26,14.373 3.969,1.534 7.568,3.897 10.695,7.024 l 1.091,1.091 c 5.29,5.29 8.434,12.014 8.851,18.934 0.391,6.464 -1.69,12.32 -5.858,16.488 -4.168,4.168 -10.026,6.254 -16.488,5.857 -6.92,-0.417 -13.645,-3.561 -18.934,-8.851 l -1.091,-1.091 c -3.127,-3.127 -5.49,-6.726 -7.024,-10.694 -2.429,-6.288 -7.802,-10.871 -14.374,-12.261 -6.043,-1.278 -12.167,0.474 -16.381,4.687 l -34.39,34.392 c -10.363,10.364 -9.688,27.902 1.507,39.097 l 37.988,37.989 c -6.138,1.942 -11.677,5.284 -16.188,9.794 l -0.967,0.967 c -16.738,16.739 -15.395,45.316 2.994,63.706 9.763,9.762 22.393,14.721 34.602,14.719 10.79,0 21.251,-3.874 29.103,-11.727 l 0.967,-0.966 c 4.511,-4.511 7.852,-10.049 9.794,-16.189 l 37.988,37.989 c 5.264,5.264 12.104,8.4 19.259,8.833 0.548,0.033 1.095,0.05 1.64,0.05 6.906,0 13.465,-2.641 18.2,-7.376 l 32.747,-32.747 c 2.544,6.186 6.288,11.774 11.137,16.625 l 1.091,1.091 c 18.389,18.388 46.967,19.731 63.706,2.993 16.739,-16.739 15.396,-45.317 -2.993,-63.706 l -1.091,-1.091 c -4.85,-4.85 -10.438,-8.593 -16.625,-11.137 l 32.786,-32.786 c 5.109,-5.11 7.779,-12.34 7.326,-19.84 z m -21.467,5.698 -34.429,34.429 c -4.212,4.213 -5.965,10.336 -4.687,16.379 1.389,6.572 5.972,11.945 12.26,14.375 3.969,1.534 7.568,3.897 10.695,7.025 l 1.091,1.091 c 10.591,10.591 11.934,26.48 2.993,35.421 -8.94,8.941 -24.832,7.598 -35.421,-2.993 l -1.091,-1.091 c -3.127,-3.127 -5.491,-6.726 -7.025,-10.694 -2.429,-6.288 -7.803,-10.871 -14.375,-12.26 -6.044,-1.278 -12.167,0.475 -16.379,4.687 l -34.39,34.391 c -1.384,1.384 -3.206,1.586 -4.492,1.504 -2.239,-0.135 -4.543,-1.233 -6.322,-3.011 l -15.239,-15.239 33.186,-33.186 c 3.905,-3.905 3.905,-10.237 0,-14.143 -3.905,-3.906 -10.237,-3.905 -14.143,0 l -33.186,33.186 -10.355,-10.355 c -3.787,-3.787 -8.775,-5.836 -13.802,-5.836 -1.738,0 -3.482,0.246 -5.182,0.749 -6.148,1.821 -10.617,6.66 -11.954,12.945 -0.84,3.947 -2.655,7.337 -5.395,10.077 l -0.967,0.966 c -8.94,8.941 -24.832,7.598 -35.421,-2.993 -10.591,-10.591 -11.934,-26.48 -2.994,-35.421 l 0.967,-0.967 c 2.74,-2.74 6.13,-4.555 10.077,-5.395 6.286,-1.337 11.125,-5.807 12.946,-11.956 1.958,-6.613 0.008,-13.886 -5.087,-18.981 L 23.024,352.692 c -1.779,-1.778 -2.876,-4.083 -3.012,-6.322 -0.078,-1.285 0.121,-3.107 1.504,-4.492 l 32.747,-32.747 c 2.544,6.186 6.288,11.774 11.137,16.625 l 1.091,1.091 c 18.39,18.389 46.967,19.731 63.707,2.993 16.738,-16.739 15.396,-45.316 -2.994,-63.706 l -1.091,-1.091 c -4.85,-4.85 -10.438,-8.593 -16.625,-11.137 l 32.786,-32.786 c 2.524,-2.522 7.476,-1.832 10.814,1.507 l 39.736,39.735 c 5.095,5.096 12.368,7.045 18.982,5.087 6.148,-1.82 10.617,-6.66 11.955,-12.946 0.839,-3.946 2.654,-7.336 5.395,-10.076 l 0.967,-0.967 c 4.168,-4.167 10.022,-6.247 16.488,-5.857 6.92,0.417 13.645,3.561 18.934,8.851 10.591,10.592 11.934,26.482 2.993,35.421 l -0.966,0.967 c -2.74,2.74 -6.13,4.555 -10.076,5.395 -6.286,1.337 -11.126,5.806 -12.947,11.955 -1.958,6.613 -0.009,13.887 5.087,18.983 l 39.736,39.736 c 1.778,1.778 2.876,4.082 3.011,6.321 0.078,1.286 -0.12,3.108 -1.504,4.493 z"
         id="path2"
         inkscape:connector-curvature="0" /></g></g><g
     id="g12"
     transform="translate(480.48367,-1.6056264e-4)"><g
       id="g10"><path
         d="m 202.907,400.76 c -1.86,-1.86 -4.44,-2.93 -7.07,-2.93 -2.63,0 -5.21,1.07 -7.07,2.93 -1.86,1.86 -2.93,4.44 -2.93,7.07 0,2.63 1.07,5.21 2.93,7.07 1.86,1.86 4.43,2.93 7.07,2.93 2.63,0 5.21,-1.07 7.07,-2.93 1.86,-1.86 2.93,-4.44 2.93,-7.07 0,-2.63 -1.07,-5.21 -2.93,-7.07 z"
         id="path8"
         inkscape:connector-curvature="0" /></g></g><g
     id="g18"
     transform="translate(480.48367,-1.6056264e-4)"><g
       id="g16"><path
         d="m 415.263,126.995 c -1.86,-1.86 -4.44,-2.93 -7.07,-2.93 -2.63,0 -5.21,1.07 -7.07,2.93 -1.86,1.86 -2.93,4.44 -2.93,7.07 0,2.63 1.07,5.21 2.93,7.07 1.86,1.86 4.44,2.93 7.07,2.93 2.63,0 5.21,-1.07 7.07,-2.93 1.86,-1.86 2.93,-4.44 2.93,-7.07 0,-2.63 -1.07,-5.21 -2.93,-7.07 z"
         id="path14"
         inkscape:connector-curvature="0" /></g></g><g
     id="g24"
     transform="translate(480.48367,-1.6056264e-4)"><g
       id="g22"><path
         d="m 490.15,229.831 c -5.433,-5.433 -12.006,-9.589 -19.072,-12.069 l 33.524,-33.524 c 5.109,-5.108 7.779,-12.34 7.326,-19.84 -0.432,-7.155 -3.569,-13.995 -8.833,-19.259 l -37.238,-37.244 c 5.25,-2.005 10.024,-5.081 13.962,-9.02 l 0.967,-0.967 C 497.524,81.169 496.182,52.592 477.792,34.202 459.404,15.814 430.826,14.471 414.086,31.209 l -0.967,0.967 c -3.939,3.94 -7.016,8.715 -9.021,13.967 L 366.813,8.859 C 355.618,-2.336 338.08,-3.012 327.715,7.352 l -33.524,33.524 c -2.48,-7.066 -6.636,-13.639 -12.069,-19.072 l -1.091,-1.091 C 262.642,2.324 234.064,0.982 217.325,17.72 c -16.738,16.739 -15.396,45.317 2.992,63.704 l 1.093,1.093 c 5.432,5.432 12.005,9.588 19.072,12.069 l -33.525,33.524 c -10.364,10.364 -9.688,27.902 1.51,39.1 l 39.771,39.741 c 5.097,5.096 12.373,7.044 18.983,5.087 6.148,-1.821 10.617,-6.661 11.955,-12.946 0.839,-3.946 2.654,-7.336 5.395,-10.076 l 0.967,-0.967 c 4.168,-4.168 10.034,-6.251 16.488,-5.858 6.92,0.418 13.644,3.562 18.934,8.852 5.29,5.29 8.433,12.014 8.851,18.934 0.391,6.465 -1.69,12.321 -5.858,16.489 l -0.966,0.966 c -2.74,2.74 -6.13,4.555 -10.076,5.395 -6.286,1.337 -11.125,5.806 -12.946,11.954 -1.958,6.612 -0.01,13.884 5.084,18.98 l 39.699,39.73 c 5.881,5.881 13.512,8.859 20.935,8.859 6.707,0 13.244,-2.432 18.164,-7.352 l 33.524,-33.524 c 2.48,7.065 6.636,13.639 12.068,19.071 l 1.092,1.092 c 18.39,18.389 46.967,19.731 63.706,2.993 16.738,-16.739 15.396,-45.317 -2.993,-63.706 z m -10.059,50.654 c -8.94,8.941 -24.831,7.598 -35.421,-2.993 l -1.091,-1.091 c -3.484,-3.483 -6.095,-7.694 -7.55,-12.177 -2.115,-6.512 -7.567,-11.551 -14.229,-13.151 -6.219,-1.493 -12.533,0.215 -16.889,4.571 l -35.209,35.209 c -1.385,1.384 -3.209,1.584 -4.492,1.504 -2.239,-0.135 -4.543,-1.233 -6.319,-3.009 l -37.954,-37.983 c 6.139,-1.942 11.678,-5.284 16.189,-9.794 l 0.966,-0.967 c 8.272,-8.272 12.42,-19.579 11.68,-31.835 -0.713,-11.803 -5.923,-23.122 -14.672,-31.87 -8.749,-8.748 -20.067,-13.96 -31.87,-14.673 -12.262,-0.736 -23.564,3.408 -31.835,11.679 l -0.967,0.967 c -4.511,4.512 -7.853,10.051 -9.794,16.189 l -38.026,-37.997 c -1.779,-1.778 -2.876,-4.083 -3.012,-6.322 -0.078,-1.285 0.121,-3.108 1.504,-4.492 l 35.21,-35.209 c 4.356,-4.356 6.064,-10.67 4.571,-16.89 -1.601,-6.662 -6.64,-12.114 -13.151,-14.228 -4.482,-1.456 -8.693,-4.067 -12.175,-7.549 l -1.093,-1.093 C 223.871,56.69 222.528,40.801 231.469,31.86 c 8.939,-8.941 24.831,-7.599 35.421,2.993 l 1.091,1.091 c 3.484,3.483 6.095,7.694 7.551,12.177 2.115,6.512 7.567,11.551 14.229,13.15 6.219,1.493 12.533,-0.216 16.889,-4.571 l 35.208,-35.209 c 2.524,-2.521 7.475,-1.832 10.814,1.507 l 38.854,38.855 c 4.925,4.925 11.995,6.934 18.448,5.238 5.989,-1.572 10.557,-6.065 12.217,-12.018 0.947,-3.392 2.653,-6.338 5.071,-8.756 l 0.967,-0.967 c 8.939,-8.941 24.831,-7.599 35.421,2.993 10.591,10.591 11.934,26.48 2.993,35.421 l -0.967,0.967 c -2.418,2.419 -5.364,4.125 -8.755,5.071 -5.953,1.661 -10.446,6.228 -12.018,12.217 -1.694,6.454 0.313,13.523 5.238,18.449 l 38.811,38.811 c 1.779,1.778 2.876,4.083 3.012,6.322 0.078,1.285 -0.121,3.108 -1.505,4.492 L 474.411,186.141 441.271,153 c -3.906,-3.905 -10.237,-3.905 -14.142,0 -3.905,3.905 -3.906,10.237 0,14.142 l 33.14,33.141 -5.02,5.02 c -4.355,4.356 -6.064,10.67 -4.571,16.889 1.6,6.662 6.639,12.114 13.15,14.229 4.483,1.456 8.693,4.067 12.177,7.551 l 1.091,1.091 c 10.594,10.592 11.936,26.483 2.995,35.422 z"
         id="path20"
         inkscape:connector-curvature="0" /></g></g><g
     id="g26"
     transform="translate(480.48367,-1.6056264e-4)" /><g
     id="g28"
     transform="translate(480.48367,-1.6056264e-4)" /><g
     id="g30"
     transform="translate(480.48367,-1.6056264e-4)" /><g
     id="g32"
     transform="translate(480.48367,-1.6056264e-4)" /><g
     id="g34"
     transform="translate(480.48367,-1.6056264e-4)" /><g
     id="g36"
     transform="translate(480.48367,-1.6056264e-4)" /><g
     id="g38"
     transform="translate(480.48367,-1.6056264e-4)" /><g
     id="g40"
     transform="translate(480.48367,-1.6056264e-4)" /><g
     id="g42"
     transform="translate(480.48367,-1.6056264e-4)" /><g
     id="g44"
     transform="translate(480.48367,-1.6056264e-4)" /><g
     id="g46"
     transform="translate(480.48367,-1.6056264e-4)" /><g
     id="g48"
     transform="translate(480.48367,-1.6056264e-4)" /><g
     id="g50"
     transform="translate(480.48367,-1.6056264e-4)" /><g
     id="g52"
     transform="translate(480.48367,-1.6056264e-4)" /><g
     id="g54"
     transform="translate(480.48367,-1.6056264e-4)" /><text
     xml:space="preserve"
     style="font-style:normal;font-variant:normal;font-weight:normal;font-stretch:normal;font-size:106.66666412px;line-height:1.25;font-family:Adonais;-inkscape-font-specification:Adonais;letter-spacing:0px;word-spacing:0px;fill:#000000;fill-opacity:1;stroke:none"
     x="-2.5599999"
     y="669.66199"
     id="text4540"><tspan
       sodipodi:role="line"
       id="tspan4538"
       x="-2.5599999"
       y="669.66199"
       style="letter-spacing:-2px">African Red Slip Ware digital</tspan></text>
</svg>